# xmcd
#
# Track frame offsets:
#	150
#	15177
#	35617
#	53919
#	65269
#	84370
#	97334
#	117511
#	135813
#	150076
#	170728
#	190080
#
# Disc length: 2926 seconds
#
# Revision: 1
# Processed by: cddbd v1.5.2PL0 Copyright (c) Steve Scherf et al.
# Submitted via: EasyCDDAExtractor 11.0.2.1
#
DISCID=8d0b6c0c
DTITLE=Raymond Froggatt - Birmingham Rain
DYEAR=1900
DGENRE=Country
TTITLE0=A Matter Of Time
TTITLE1=Fallin' Down
TTITLE2=I'll Be Seein' You Tonight
TTITLE3=Love Me A Lot
TTITLE4=Autumn rain
TTITLE5=where Are You Now
TTITLE6=Running Out Of time
TTITLE7=Wonderful Life
TTITLE8=If You Are Lucjy My Son
TTITLE9=England
TTITLE10=For The Ladies
TTITLE11=Birmingham rain
EXTD=
EXTT0=
EXTT1=
EXTT2=
EXTT3=
EXTT4=
EXTT5=
EXTT6=
EXTT7=
EXTT8=
EXTT9=
EXTT10=
EXTT11=
PLAYORDER=
